<?xml version="1.0" standalone="no"?>
<!DOCTYPE svg PUBLIC "-//W3C//DTD SVG 20010904//EN"
 "http://www.w3.org/TR/2001/REC-SVG-20010904/DTD/svg10.dtd">
<svg version="1.0" xmlns="http://www.w3.org/2000/svg"
 width="766.000000pt" height="766.000000pt" viewBox="0 0 766.000000 766.000000"
 preserveAspectRatio="xMidYMid meet">
<metadata>
Created by potrace 1.16, written by Peter Selinger 2001-2019
</metadata>
<g transform="translate(0.000000,766.000000) scale(0.100000,-0.100000)"
fill="#000000" stroke="none">
<path d="M1319 6557 c-24 -13 -57 -43 -74 -66 l-30 -43 0 -2618 0 -2618 30
-43 c17 -23 50 -53 74 -66 l44 -23 2467 0 2467 0 44 23 c24 13 58 43 74 66
l30 43 0 2618 0 2618 -30 43 c-16 23 -50 53 -74 66 l-44 23 -2467 0 -2467 0
-44 -23z m1313 -607 c93 -26 148 -117 148 -245 0 -130 -55 -219 -152 -245 -90
-25 -175 14 -223 101 -27 49 -30 63 -30 144 1 78 4 97 28 142 47 91 132 129
229 103z m1518 -15 c40 -21 78 -70 91 -117 13 -50 4 -58 -61 -58 -45 0 -46 1
-60 42 -26 74 -107 80 -138 10 -22 -51 -21 -176 1 -219 32 -61 108 -56 140 10
18 35 21 37 67 37 27 0 51 -4 54 -8 9 -16 -14 -81 -41 -112 -66 -79 -194 -89
-282 -23 -81 62 -109 233 -55 341 43 86 114 126 208 116 27 -3 61 -11 76 -19z
m-950 -35 l0 -50 -116 0 -115 0 3 -52 3 -53 88 -3 87 -3 0 -44 0 -45 -90 0
-90 0 0 -95 0 -96 -57 3 -58 3 -3 230 c-1 126 0 235 2 242 4 10 47 13 176 13
l170 0 0 -50z m398 -2 l3 -48 -115 0 -116 0 0 -55 0 -55 90 0 90 0 0 -45 0
-45 -90 0 -90 0 0 -95 0 -95 -60 0 -60 0 0 245 0 245 173 -2 172 -3 3 -47z
m167 -193 l0 -240 -57 -3 -58 -3 0 246 0 246 58 -3 57 -3 0 -240z m660 0 l0
-240 -57 -3 -58 -3 0 246 0 246 58 -3 57 -3 0 -240z m335 241 c0 -3 29 -97
146 -469 5 -16 -1 -18 -57 -15 l-62 3 -17 50 -17 50 -74 0 -74 0 -16 -50 -16
-50 -52 -3 c-47 -3 -52 -1 -47 15 7 21 134 429 142 456 4 14 17 17 75 17 38 0
69 -2 69 -4z m310 -191 l0 -195 95 0 95 0 0 -50 0 -50 -150 0 -150 0 0 245 0
245 55 0 55 0 0 -195z m-2460 -580 c33 -17 82 -73 77 -88 -2 -6 -22 -17 -44
-24 -40 -14 -41 -13 -71 17 -47 46 -122 37 -122 -16 0 -28 8 -32 116 -63 96
-28 134 -68 134 -143 0 -103 -70 -162 -195 -162 -97 0 -167 40 -189 111 -6 19
-2 23 31 32 54 15 58 14 91 -19 25 -24 39 -30 75 -30 51 0 83 26 72 59 -4 15
-25 26 -78 42 -123 36 -161 65 -172 128 -13 75 41 152 119 172 40 10 122 2
156 -16z m2782 -10 c23 -16 46 -44 65 -82 24 -50 28 -69 28 -143 -1 -72 -5
-93 -28 -137 -59 -115 -202 -146 -298 -66 -107 90 -107 326 0 416 18 15 45 30
59 33 15 3 32 7 37 9 24 9 103 -8 137 -30z m-3435 -2 c157 -81 159 -346 3
-433 -39 -21 -61 -25 -162 -28 l-118 -4 0 247 0 248 119 -5 c92 -4 128 -10
158 -25z m303 -218 l0 -245 -55 0 -55 0 0 245 0 245 55 0 55 0 0 -245z m820
195 l0 -50 -60 0 -60 0 0 -195 0 -195 -55 0 -55 0 0 195 0 195 -60 0 -60 0 0
50 0 50 175 0 175 0 0 -50z m369 25 c86 -51 94 -175 15 -233 l-27 -19 41 -99
c23 -54 42 -103 42 -107 0 -4 -28 -7 -62 -5 l-62 3 -36 90 -36 90 -42 3 -42 3
0 -95 0 -96 -55 0 -55 0 0 246 0 246 143 -3 c119 -4 147 -7 176 -24z m266
-220 l0 -240 -57 -3 -58 -3 0 246 0 246 58 -3 57 -3 0 -240z m421 221 c79 -47
86 -151 13 -195 -29 -18 -30 -19 -10 -26 11 -3 32 -20 46 -36 37 -45 35 -107
-5 -153 -39 -44 -92 -56 -250 -56 l-120 0 0 246 0 246 148 -4 c121 -3 152 -7
178 -22z m264 -143 c0 -93 3 -178 6 -189 12 -44 99 -59 134 -24 19 19 20 33
20 200 l0 180 51 0 50 0 -3 -199 c-3 -185 -5 -202 -24 -228 -37 -49 -79 -67
-163 -67 -92 0 -141 20 -173 73 -21 33 -23 50 -27 213 -2 98 -1 185 3 193 4
11 21 15 66 15 l60 0 0 -167z m650 117 l0 -50 -60 0 -60 0 0 -195 0 -195 -55
0 -55 0 0 195 0 195 -60 0 -60 0 0 50 0 50 175 0 175 0 0 -50z m829 25 c86
-51 94 -175 15 -233 l-27 -19 41 -99 c23 -54 42 -103 42 -107 0 -4 -28 -7 -62
-5 l-62 3 -36 90 -36 90 -42 3 -42 3 0 -95 0 -96 -55 0 -55 0 0 246 0 246 143
-3 c119 -4 147 -7 176 -24z m481 -2220 l0 -1045 -1245 0 -1245 0 0 -250 0
-250 1240 0 c682 0 1240 -3 1240 -7 0 -5 -13 -31 -30 -59 -34 -61 -76 -98
-145 -130 l-50 -24 -2285 0 -2285 0 -52 24 c-62 29 -123 90 -155 154 l-23 47
-3 1293 -2 1292 2520 0 2520 0 0 -1045z m-1950 -1470 c0 -3 -17 -5 -38 -5 -33
0 -39 4 -49 30 -11 28 -15 30 -63 30 -48 0 -52 -2 -63 -30 -10 -26 -16 -30
-49 -30 -21 0 -38 2 -38 4 0 2 21 48 46 102 26 55 60 128 76 164 l29 64 74
-162 c41 -90 75 -165 75 -167z m158 239 c41 -23 62 -64 62 -117 0 -78 -60
-127 -155 -127 l-45 0 0 136 0 137 55 -6 c30 -3 67 -13 83 -23z m152 -75 c47
-93 50 -103 40 -135 -6 -19 -15 -34 -18 -34 -8 0 -132 245 -132 260 0 6 13 10
30 10 28 0 33 -7 80 -101z m226 -54 c24 -57 44 -106 44 -109 0 -3 -15 -6 -34
-6 -30 0 -35 4 -50 45 -18 45 -18 45 -67 45 -53 0 -54 1 -39 31 7 12 21 19 40
19 29 0 29 0 16 32 -12 27 -12 37 2 65 l16 34 14 -27 c7 -14 34 -73 58 -129z
m187 45 l47 -44 0 77 0 77 30 0 30 0 0 -141 0 -141 -78 71 c-44 39 -82 71 -85
71 -4 0 -7 -29 -7 -65 l0 -65 -30 0 -30 0 0 137 0 137 38 -34 c20 -19 58 -55
85 -80z m337 80 c0 -28 -3 -30 -35 -30 l-35 0 0 -105 0 -105 -30 0 -30 0 0
105 0 105 -35 0 c-37 0 -52 17 -41 45 4 12 26 15 106 15 l100 0 0 -30z m180 5
c0 -23 -4 -25 -45 -25 -43 0 -45 -1 -45 -30 0 -29 2 -30 45 -30 41 0 45 -2 45
-25 0 -23 -4 -25 -45 -25 -43 0 -45 -1 -45 -30 0 -29 2 -30 45 -30 41 0 45 -2
45 -25 0 -24 -2 -25 -75 -25 l-75 0 0 135 0 135 75 0 c73 0 75 -1 75 -25z
m211 15 c26 -14 27 -66 2 -54 -38 17 -85 8 -110 -20 -62 -73 22 -172 108 -126
17 9 19 7 19 -19 0 -33 -14 -41 -71 -41 -82 0 -139 53 -139 131 0 37 6 54 27
80 44 51 117 73 164 49z m109 -45 l0 -55 49 0 50 0 3 53 c3 48 5 52 31 55 l27
3 0 -135 0 -136 -30 0 c-30 0 -30 1 -30 55 l0 55 -50 0 -50 0 0 -55 c0 -54 0
-55 -30 -55 l-30 0 0 135 0 135 30 0 c30 0 30 -1 30 -55z"/>
<path d="M2531 5841 c-24 -24 -41 -81 -41 -136 0 -128 76 -198 141 -129 22 24
24 33 24 129 0 96 -2 105 -24 129 -29 31 -73 34 -100 7z"/>
<path d="M5231 5074 c-26 -33 -34 -78 -29 -159 6 -102 61 -152 122 -111 58 37
60 241 3 281 -33 23 -73 19 -96 -11z"/>
<path d="M1798 5094 c-5 -4 -8 -72 -8 -151 l0 -143 34 0 c73 0 110 32 127 111
12 54 -12 142 -44 163 -26 18 -99 31 -109 20z"/>
<path d="M3240 5040 l0 -60 60 0 c65 0 100 21 100 60 0 39 -35 60 -100 60
l-60 0 0 -60z"/>
<path d="M3930 4850 l0 -60 53 0 c70 0 101 17 105 57 4 44 -26 63 -100 63
l-58 0 0 -60z"/>
<path d="M5670 5040 l0 -60 60 0 c65 0 100 21 100 60 0 39 -35 60 -100 60
l-60 0 0 -60z"/>
<path d="M2555 3498 c-9 -24 -43 -113 -75 -198 -32 -85 -62 -163 -66 -173 -6
-16 -2 -18 22 -15 25 3 32 10 50 63 l21 60 95 3 95 3 24 -63 c21 -54 29 -63
52 -66 15 -2 27 0 27 5 0 4 -37 101 -82 215 l-83 208 -31 0 c-28 0 -34 -5 -49
-42z m52 -206 c-38 -2 -71 -1 -73 1 -3 2 9 40 25 83 16 44 32 88 36 99 5 15
16 -6 44 -80 l38 -100 -70 -3z"/>
<path d="M3350 3325 l0 -215 25 0 25 0 0 106 c0 131 19 173 80 174 57 0 70
-32 70 -170 0 -110 0 -111 23 -108 21 3 22 8 25 106 3 130 -8 176 -50 198 -38
19 -101 14 -129 -12 -19 -17 -19 -15 -19 59 0 75 -1 77 -25 77 l-25 0 0 -215z"/>
<path d="M5180 3465 l0 -76 -29 22 c-23 17 -39 21 -71 16 -72 -9 -113 -66
-113 -157 0 -96 51 -160 127 -160 23 0 51 7 63 15 19 13 22 13 27 0 3 -8 15
-15 26 -15 19 0 20 6 20 215 l0 215 -25 0 c-24 0 -25 -2 -25 -75z m-33 -90
c47 -33 53 -147 11 -200 -15 -19 -29 -25 -58 -25 -46 0 -75 30 -85 89 -13 81
26 151 85 151 14 0 35 -7 47 -15z"/>
<path d="M3213 3515 c-17 -12 -23 -26 -23 -56 0 -32 -3 -39 -20 -39 -11 0 -20
-7 -20 -15 0 -8 9 -15 20 -15 19 0 20 -7 20 -124 0 -118 1 -126 22 -140 31
-22 92 -22 84 0 -3 9 -6 20 -6 25 0 5 -11 9 -25 9 l-25 0 0 115 0 115 25 0
c16 0 25 6 25 15 0 9 -9 15 -25 15 -22 0 -24 4 -27 55 -3 55 -3 55 -25 40z"/>
<path d="M3733 3410 c-51 -31 -68 -65 -68 -140 0 -112 54 -167 154 -158 67 7
106 41 120 109 25 116 -35 209 -134 209 -22 0 -54 -9 -72 -20z m132 -46 c29
-32 40 -89 25 -143 -13 -51 -45 -73 -96 -69 -70 6 -105 98 -70 182 17 40 39
55 84 56 23 0 40 -8 57 -26z"/>
<path d="M4081 3404 c-20 -25 -21 -26 -21 -5 0 14 -6 21 -20 21 -19 0 -20 -7
-20 -155 l0 -155 24 0 c24 0 24 1 28 121 3 107 5 122 23 135 12 9 31 13 46 10
21 -4 28 -1 33 17 11 44 -60 52 -93 11z"/>
<path d="M4699 3407 c-52 -34 -71 -80 -66 -154 8 -106 58 -150 164 -141 48 4
61 10 85 37 16 18 27 38 25 44 -5 15 -47 22 -47 8 0 -25 -41 -51 -81 -51 -49
0 -99 43 -99 84 l0 26 120 0 121 0 -7 38 c-4 20 -13 50 -21 65 -33 65 -130 87
-194 44z"/>
<path d="M2852 3289 c3 -129 3 -131 31 -155 37 -31 103 -33 141 -3 l26 20 0
-21 c0 -16 5 -21 23 -18 22 3 22 6 25 156 l3 152 -26 0 c-25 0 -25 -1 -25 -87
0 -144 -19 -183 -89 -183 -50 0 -61 28 -61 157 l0 113 -26 0 -26 0 4 -131z"/>
<path d="M4220 3265 l0 -155 25 0 25 0 0 155 0 155 -25 0 -25 0 0 -155z"/>
<path d="M4332 3403 c3 -16 16 -18 91 -18 48 0 87 -1 87 -3 0 -2 -43 -54 -95
-116 -55 -65 -95 -123 -95 -135 0 -20 4 -21 135 -21 l135 0 0 26 0 26 -100 -4
c-55 -1 -100 -2 -100 0 0 2 45 56 100 121 55 65 100 123 100 129 0 9 -39 12
-131 12 -119 0 -130 -2 -127 -17z"/>
<path d="M1817 2816 c-82 -30 -126 -101 -127 -202 0 -143 68 -224 189 -224 83
0 145 36 172 101 13 33 13 34 -18 43 -19 6 -25 1 -37 -28 -19 -46 -58 -70
-115 -70 -82 0 -128 49 -138 148 -12 114 44 196 135 196 53 0 85 -18 107 -59
11 -23 19 -27 40 -24 30 6 31 16 6 57 -39 62 -137 91 -214 62z"/>
<path d="M2132 2608 c3 -209 3 -213 24 -216 21 -3 22 1 26 113 3 114 4 118 31
141 34 29 70 31 97 4 18 -18 20 -33 20 -140 l0 -120 26 0 26 0 -4 135 c-3 121
-5 137 -24 155 -32 32 -95 37 -139 12 l-35 -21 0 74 c0 73 -1 75 -25 75 l-25
0 2 -212z"/>
<path d="M3800 2605 l0 -215 25 0 25 0 0 215 0 215 -25 0 -25 0 0 -215z"/>
<path d="M4110 2605 l0 -215 25 0 c25 0 25 1 25 89 l0 89 100 4 c96 4 102 5
131 35 61 60 46 168 -26 199 -23 9 -72 14 -145 14 l-110 0 0 -215z m250 138
c16 -20 20 -36 16 -58 -10 -52 -37 -65 -132 -65 l-84 0 0 75 0 75 89 0 c86 0
90 -1 111 -27z"/>
<path d="M5063 2795 c-18 -12 -23 -26 -23 -57 l0 -41 -59 7 c-56 6 -60 5 -80
-20 -20 -25 -21 -25 -21 -5 0 14 -6 21 -20 21 -19 0 -20 -7 -20 -156 l0 -155
23 3 c21 3 22 8 27 119 6 131 15 153 63 146 22 -3 31 1 37 17 5 12 9 15 9 9 1
-7 10 -13 21 -13 19 0 20 -7 20 -120 0 -138 10 -160 76 -160 31 0 35 3 32 22
-2 14 -12 24 -28 28 -25 6 -25 8 -28 118 l-3 112 26 0 c16 0 25 6 25 15 0 9
-9 15 -25 15 -22 0 -24 4 -27 55 -3 55 -3 55 -25 40z"/>
<path d="M2514 2694 c-38 -18 -62 -63 -42 -75 20 -13 38 -11 38 4 0 39 83 62
131 37 19 -11 27 -64 11 -74 -5 -3 -39 -10 -76 -16 -76 -12 -100 -24 -115 -57
-18 -39 -13 -72 15 -100 23 -23 31 -25 84 -21 37 3 66 11 78 21 24 22 29 21
35 -3 3 -12 14 -20 25 -20 19 0 20 5 15 123 -2 67 -6 132 -9 144 -10 48 -123
70 -190 37z"/>
<path d="M2900 2703 c-8 -3 -23 -12 -32 -21 -16 -14 -18 -13 -18 1 0 11 -8 17
-25 17 l-25 0 0 -155 0 -155 25 0 25 0 0 105 c0 139 17 175 84 175 48 0 61
-32 64 -162 4 -116 4 -119 25 -116 21 3 22 9 25 106 3 127 -8 177 -48 197 -29
15 -72 18 -100 8z"/>
<path d="M3213 2691 c-27 -17 -33 -18 -33 -6 0 9 -10 15 -25 15 l-26 0 3 -152
c3 -148 4 -153 24 -156 21 -3 22 1 26 113 3 114 4 118 31 141 34 29 70 31 97
4 18 -18 20 -33 20 -140 l0 -120 26 0 26 0 -4 135 c-3 122 -5 137 -24 156 -32
31 -100 36 -141 10z"/>
<path d="M3521 2692 c-46 -25 -71 -74 -71 -140 0 -105 50 -162 143 -162 59 0
102 21 121 59 26 50 -11 58 -51 11 -20 -25 -32 -30 -68 -30 -36 0 -48 5 -69
31 -14 17 -26 41 -26 55 l0 24 115 0 115 0 0 33 c0 104 -115 169 -209 119z"/>
<path d="M4550 2693 c-19 -10 -40 -29 -47 -43 -11 -22 -10 -26 9 -33 15 -5 24
-3 30 7 18 32 41 46 76 46 51 0 84 -24 80 -58 -3 -25 -8 -28 -77 -39 -83 -14
-117 -32 -131 -69 -33 -87 86 -150 177 -94 32 19 33 19 43 0 13 -24 55 -28 46
-4 -3 9 -6 67 -6 129 0 105 -2 116 -23 141 -20 23 -34 28 -83 31 -43 3 -68 -1
-94 -14z"/>
<path d="M5300 2703 c-8 -3 -23 -12 -32 -21 -16 -14 -18 -13 -18 1 0 11 -8 17
-25 17 l-25 0 0 -155 0 -155 25 0 25 0 0 105 c0 139 17 175 84 175 48 0 61
-32 64 -162 4 -116 4 -119 25 -116 21 3 22 9 25 106 3 127 -8 177 -48 197 -29
15 -72 18 -100 8z"/>
<path d="M5593 2696 c-88 -40 -107 -200 -33 -271 23 -22 42 -29 86 -33 67 -6
111 13 137 57 29 50 -16 59 -51 11 -19 -25 -29 -30 -66 -30 -27 0 -52 7 -65
18 -22 17 -44 76 -33 86 3 3 56 6 119 6 l113 0 0 25 c0 37 -23 86 -53 114 -33
30 -107 38 -154 17z"/>
<path d="M5931 2684 c-20 -25 -21 -26 -21 -5 0 14 -6 21 -20 21 -19 0 -20 -7
-20 -155 l0 -155 24 0 c24 0 24 1 28 121 3 107 5 122 23 135 12 9 31 13 46 10
21 -4 28 -1 33 17 11 44 -60 52 -93 11z"/>
</g>
</svg>
